<svg width="119" height="119" fill="none" xmlns="http://www.w3.org/2000/svg"><path d="M118.5 47.67c0 26.369-12.749 43.52-26.52 54.369-13.636 10.742-28.264 15.292-32.462 16.442-4.017-1.14-18.647-5.813-32.335-16.616C13.353 90.949.5 73.789.5 47.669V16.802c28.055 7.646 50.78-8.936 59-16.135 8.217 7.2 30.937 23.77 59 16.135v30.867z" fill="#0468FF" stroke="#0468FF"/><path d="M59.5 113l-1.256-.395C57.731 112.446 7 95.995 7 47.3V23.126l4.652.69C37.6 27.662 56.455 9.902 56.645 9.725L59.488 7l2.86 2.721c.189.178 19.186 17.91 44.996 14.094l4.656-.689V47.3c0 48.695-50.731 65.146-51.244 65.305L59.5 113z" fill="#fff"/></svg>