<svg width="69" height="108" fill="none" xmlns="http://www.w3.org/2000/svg"><path d="M56.033 35.016c0-12.245-9.662-22.36-21.533-22.36-11.855 0-21.533 10.1-21.533 22.36 0 12.212 9.66 22.148 21.533 22.148 11.873 0 21.533-9.936 21.533-22.148zm-36.914 0c0-8.84 6.9-16.032 15.381-16.032s15.38 7.192 15.38 16.032c0 8.723-6.899 15.82-15.38 15.82-8.481 0-15.38-7.097-15.38-15.82z" fill="#0468FF"/><path d="M68.338 35.016C68.338 15.818 53.187 0 34.5 0 16.86 0 .662 14.495.662 35.016c0 12.794 12.179 32.128 19.41 42.751C12.034 79.43.662 83.72.662 92.18.662 104.277 22.57 108 34.5 108c11.932 0 33.838-3.723 33.838-15.82 0-8.46-11.372-12.751-19.41-14.413 7.194-10.569 19.41-29.942 19.41-42.751zm-61.524 0c0-17.72 14.371-28.688 27.686-28.688 15.266 0 27.685 12.87 27.685 28.688 0 13.4-18.203 39.812-27.685 52.132C25.016 74.83 6.814 48.423 6.814 35.016zM62.185 92.18c0 5.286-15.065 9.492-27.685 9.492-12.604 0-27.686-4.21-27.686-9.492 0-2.519 5.496-6.885 17.243-8.708 4.487 6.262 7.864 10.465 8.075 10.727a3.042 3.042 0 002.368 1.145c.916 0 1.784-.42 2.368-1.145.21-.262 3.588-4.465 8.075-10.727 11.747 1.824 17.242 6.19 17.242 8.708z" fill="#0468FF"/></svg>