<svg xmlns="http://www.w3.org/2000/svg" width="512" height="512"><path d="M336 161.08V88a8 8 0 00-10.971-7.428L166.46 144H72c-15.4 0-29.728 7.794-40.341 21.945C21.562 179.408 16 197.186 16 216s5.562 36.592 15.659 50.055c8.988 11.984 20.644 19.387 33.355 21.38l20.405 137.738A8 8 0 0093.333 432H136a8 8 0 007.914-9.173L123.94 288h42.52l158.569 63.428A8 8 0 00336 344v-73.08c18.47-5.054 32-27.365 32-54.92s-13.53-49.866-32-54.92zM32 216c0-27.044 13.765-49.67 32-54.873v109.746C45.765 265.67 32 243.044 32 216zm94.728 200h-26.493L81.273 288h26.491zM160 272H80V160h80zm160 60.184l-144-57.6V157.416l144-57.6zm16-78.568v-75.232c9.216 5.631 16 20.582 16 37.616s-6.784 31.985-16 37.616zM488 208h-96a8 8 0 000 16h96a8 8 0 000-16zm-96-80a7.991 7.991 0 002.968-.574l80-32a8 8 0 00-5.942-14.856l-80 32A8 8 0 00392 128zm82.971 208.572l-80-32a8 8 0 10-5.942 14.856l80 32a8 8 0 005.942-14.856zm-90.816-167.003a8 8 0 007.836 6.431 8.11 8.11 0 001.578-.157l40-8a8 8 0 10-3.138-15.69l-40 8a8 8 0 00-6.276 9.416zm6.276 102.276l40 8a8.11 8.11 0 001.578.157 8 8 0 001.56-15.847l-40-8a8 8 0 00-3.138 15.69z"/></svg>